/* XPM */
static char * coinvent_xpm[] = {
"28 27 405 2",
"  	c #FEFEFE",
". 	c #FDFDFD",
"+ 	c #FFFFFF",
"@ 	c #A6DEDD",
"# 	c #28B2AE",
"$ 	c #19ADA9",
"% 	c #61C7C5",
"& 	c #99DAD9",
"* 	c #AFE1E0",
"= 	c #B8E4E3",
"- 	c #B1E2E0",
"; 	c #A2DDDB",
"> 	c #77CECD",
", 	c #27B1AF",
"' 	c #21AFAC",
") 	c #94D8D7",
"! 	c #FDFEFD",
"~ 	c #FEFFFE",
"{ 	c #FEFFFF",
"] 	c #D1EDEC",
"^ 	c #1AACA9",
"/ 	c #10A9A7",
"( 	c #B0E2E0",
"_ 	c #E6F6F5",
": 	c #A0DBDB",
"< 	c #65C8C5",
"[ 	c #45BDBA",
"} 	c #3AB9B7",
"| 	c #41BBB8",
"1 	c #5AC5C2",
"2 	c #89D4D2",
"3 	c #DBF1F0",
"4 	c #C9EAE9",
"5 	c #35B7B3",
"6 	c #07A6A3",
"7 	c #C5EAE9",
"8 	c #FDFEFE",
"9 	c #FEFDFE",
"0 	c #FEFEFD",
"a 	c #FFFEFF",
"b 	c #A2DDDC",
"c 	c #009C99",
"d 	c #8CD5D5",
"e 	c #EDF7F6",
"f 	c #59C3C1",
"g 	c #09A7A4",
"h 	c #0FAAA7",
"i 	c #17ACA9",
"j 	c #1CAEAB",
"k 	c #1DAFAC",
"l 	c #1DAFAB",
"m 	c #19ADAA",
"n 	c #11ABA8",
"o 	c #08A7A4",
"p 	c #3CB9B7",
"q 	c #CDEDEB",
"r 	c #C6EAE9",
"s 	c #009F9C",
"t 	c #84D2D0",
"u 	c #96D8D7",
"v 	c #009D99",
"w 	c #D6EFEE",
"x 	c #A0DBDA",
"y 	c #19ADAB",
"z 	c #25B2AE",
"A 	c #21AFAD",
"B 	c #21B0AD",
"C 	c #20B0AD",
"D 	c #24B1AE",
"E 	c #1FAFAD",
"F 	c #05A6A3",
"G 	c #5FC4C2",
"H 	c #FBFDFC",
"I 	c #0EA8A5",
"J 	c #73CCCA",
"K 	c #FCFDFD",
"L 	c #C0E8E5",
"M 	c #DCF2F0",
"N 	c #74CCCB",
"O 	c #08A7A5",
"P 	c #23B1AE",
"Q 	c #22B0AD",
"R 	c #22B1AD",
"S 	c #22B0AC",
"T 	c #21B0AC",
"U 	c #24B0AE",
"V 	c #10ABA7",
"W 	c #36B6B4",
"X 	c #05A5A2",
"Y 	c #A4DEDC",
"Z 	c #FCFEFE",
"` 	c #FFFEFE",
" .	c #03A4A1",
"..	c #A7DEDD",
"+.	c #92D7D4",
"@.	c #04A6A3",
"#.	c #0AA8A5",
"$.	c #16ACA9",
"%.	c #1EAFAC",
"&.	c #15ACA9",
"*.	c #21B1AE",
"=.	c #22B0AE",
"-.	c #45BBB9",
";.	c #ECF8F6",
">.	c #00A19C",
",.	c #E7F6F5",
"'.	c #66C8C5",
").	c #37B7B4",
"!.	c #DCF1F0",
"~.	c #02A5A3",
"{.	c #22B1AE",
"].	c #1AAEAA",
"^.	c #4DBFBC",
"/.	c #D0EEEC",
"(.	c #5EC5C3",
"_.	c #29B2B0",
":.	c #B8E6E4",
"<.	c #65C7C5",
"[.	c #18ADAB",
"}.	c #21B1AD",
"|.	c #23B0AE",
"1.	c #92D7D5",
"2.	c #8DD5D4",
"3.	c #40BAB7",
"4.	c #EDF8F7",
"5.	c #00A39F",
"6.	c #39B7B5",
"7.	c #0DA9A6",
"8.	c #DEF3F1",
"9.	c #76CDCB",
"0.	c #E9F7F6",
"a.	c #C5E8E8",
"b.	c #82D1CE",
"c.	c #F8FBFB",
"d.	c #21B0AE",
"e.	c #0AA8A4",
"f.	c #F1F9F9",
"g.	c #05A5A1",
"h.	c #DBF2F2",
"i.	c #9CDBD9",
"j.	c #26B1AF",
"k.	c #0BA8A5",
"l.	c #0FAAA6",
"m.	c #D4EFED",
"n.	c #43BCBB",
"o.	c #36B6B3",
"p.	c #CEEDEC",
"q.	c #36B5B2",
"r.	c #26B0AF",
"s.	c #11ABA7",
"t.	c #8FD6D4",
"u.	c #6CCBC8",
"v.	c #7BCFCC",
"w.	c #42BCB9",
"x.	c #D6F0EE",
"y.	c #46BDBB",
"z.	c #0BA6A3",
"A.	c #CEEDED",
"B.	c #3CB8B4",
"C.	c #38B8B6",
"D.	c #C2E8E6",
"E.	c #32B6B3",
"F.	c #14AAA7",
"G.	c #C2E9E7",
"H.	c #40BBB9",
"I.	c #1BAEAB",
"J.	c #12ABA8",
"K.	c #07A7A4",
"L.	c #D8F0EF",
"M.	c #3CB9B8",
"N.	c #D1EEEC",
"O.	c #D6F0F0",
"P.	c #30B3B1",
"Q.	c #E6F5F5",
"R.	c #12AAA8",
"S.	c #1AAEAB",
"T.	c #0EAAA7",
"U.	c #13ACA9",
"V.	c #0EAAA6",
"W.	c #26B2AF",
"X.	c #11A9A6",
"Y.	c #DDF3F1",
"Z.	c #1DADAA",
"`.	c #F2FAFA",
" +	c #06A5A4",
".+	c #25B1AF",
"++	c #1FAFAC",
"@+	c #4FBFBD",
"#+	c #72CCCB",
"$+	c #4ABEBC",
"%+	c #7DCFCE",
"&+	c #83D2CF",
"*+	c #5FC4C3",
"=+	c #46BCBA",
"-+	c #7DD0CC",
";+	c #A5DDDC",
">+	c #C7EAE9",
",+	c #61C6C3",
"'+	c #A9DFDD",
")+	c #2FB4B2",
"!+	c #8AD4D2",
"~+	c #94D8D6",
"{+	c #B0E2E2",
"]+	c #B2E2E0",
"^+	c #D3F0EF",
"/+	c #2AB1AF",
"(+	c #ECF8F8",
"_+	c #D8F0F1",
":+	c #1EAFAB",
"<+	c #6FCAC9",
"[+	c #D2EEEE",
"}+	c #B4E2E1",
"|+	c #B6E5E3",
"1+	c #98DAD8",
"2+	c #9EDCDA",
"3+	c #77CECC",
"4+	c #E5F6F4",
"5+	c #3FBAB9",
"6+	c #2FB5B1",
"7+	c #75CBCA",
"8+	c #E2F4F4",
"9+	c #23B0AD",
"0+	c #FCFDFA",
"a+	c #50C1BE",
"b+	c #C3E9E8",
"c+	c #34B6B3",
"d+	c #F1FAFA",
"e+	c #06A6A2",
"f+	c #D5EFEE",
"g+	c #16ADAA",
"h+	c #6BC8C7",
"i+	c #A8DFDF",
"j+	c #BBE7E6",
"k+	c #C9E9E7",
"l+	c #BFE7E5",
"m+	c #5AC3C2",
"n+	c #C4E9E8",
"o+	c #A1DEDC",
"p+	c #5AC3C1",
"q+	c #E2F5F3",
"r+	c #4FC1BF",
"s+	c #EAF6F4",
"t+	c #B5E4E2",
"u+	c #D3EFED",
"v+	c #00A4A1",
"w+	c #E5F4F2",
"x+	c #25B1AE",
"y+	c #CFEEEE",
"z+	c #2CB2AF",
"A+	c #F9FDFB",
"B+	c #C8EBE9",
"C+	c #39B9B7",
"D+	c #AADFE0",
"E+	c #B4E5E3",
"F+	c #9BD8D6",
"G+	c #38B7B6",
"H+	c #D5F0EE",
"I+	c #B9E5E3",
"J+	c #EEF8F7",
"K+	c #B0E1E1",
"L+	c #2DB3B0",
"M+	c #C7EBEA",
"N+	c #C6E9E8",
"O+	c #E3F4F4",
"P+	c #06A7A4",
"Q+	c #E7F5F3",
"R+	c #2CB4B1",
"S+	c #0DA9A5",
"T+	c #DEF3F2",
"U+	c #3DB9B7",
"V+	c #96D9D8",
"W+	c #6AC9C7",
"X+	c #17ADAA",
"Y+	c #16ADA9",
"Z+	c #6CC9C8",
"`+	c #ABE0E0",
" @	c #BDE8E8",
".@	c #53BFBC",
"+@	c #DDF1F0",
"@@	c #DFF1F1",
"#@	c #28B2B0",
"$@	c #E3F5F2",
"%@	c #009F9E",
"&@	c #C5EAE8",
"*@	c #86D3D2",
"=@	c #F8FCFB",
"-@	c #E8F6F4",
";@	c #2CB4B0",
">@	c #32B5B3",
",@	c #C6EAE8",
"'@	c #2EB5B2",
")@	c #8BD4D2",
"!@	c #34B6B2",
"~@	c #CBEDEA",
"{@	c #09A7A5",
"]@	c #17ADA9",
"^@	c #68C8C6",
"/@	c #A4DEDD",
"(@	c #C4E8E7",
"_@	c #1AAAA7",
":@	c #F4FBFA",
"<@	c #CAEBEA",
"[@	c #CCECEB",
"}@	c #11AAA7",
"|@	c #F6FCF9",
"1@	c #E5F5F3",
"2@	c #78CECB",
"3@	c #C0E7E6",
"4@	c #3FBAB7",
"5@	c #03A5A3",
"6@	c #E2F3F0",
"7@	c #2CB3B2",
"8@	c #10AAA8",
"9@	c #7ECFCE",
"0@	c #7ED1CE",
"a@	c #6BC9C8",
"b@	c #EBF7F7",
"c@	c #00A29E",
"d@	c #E2F3F2",
"e@	c #20AFAD",
"f@	c #ECF7F6",
"g@	c #0CA7A5",
"h@	c #D1EFED",
"i@	c #5CC4C0",
"j@	c #4ABEBB",
"k@	c #C9EBE9",
"l@	c #1FB0AC",
"m@	c #13ACA8",
"n@	c #7BCFCD",
"o@	c #A0DCDB",
"p@	c #35B6B3",
"q@	c #F2FAF9",
"r@	c #00A29F",
"s@	c #C3E8E7",
"t@	c #71CBC9",
"u@	c #05A7A4",
"v@	c #24B2AE",
"w@	c #18ADAA",
"x@	c #29B2AF",
"y@	c #00A19E",
"z@	c #D7F0EF",
"A@	c #7ED0CE",
"B@	c #05A6A2",
"C@	c #EFF9F8",
"D@	c #50C0BD",
"E@	c #09A8A4",
"F@	c #1BADAA",
"G@	c #1BADA9",
"H@	c #80D1CF",
"I@	c #D8F1F0",
"J@	c #14ABA8",
"K@	c #ECF8F7",
"L@	c #79CECC",
"M@	c #3DB8B6",
"N@	c #2BB2B0",
"O@	c #55C2BF",
"P@	c #FFFFFE",
"Q@	c #DCF3F2",
"R@	c #08A5A2",
"S@	c #19AEAB",
"T@	c #0CA8A6",
"U@	c #B7E4E2",
"V@	c #06A7A3",
"W@	c #20AFAC",
"X@	c #ABE0DE",
"Y@	c #E5F5F4",
"Z@	c #0BA7A3",
"`@	c #5DC4C2",
" #	c #A3DCDB",
".#	c #16ACAA",
"+#	c #49BCB9",
"@#	c #48BCBB",
"##	c #0CA8A5",
"$#	c #D4EFEE",
"%#	c #41BAB9",
"&#	c #2BB4B1",
"*#	c #27B2AF",
"=#	c #39B8B5",
"-#	c #63C5C3",
";#	c #C2E9E8",
">#	c #E1F4F3",
",#	c #62C6C4",
"'#	c #00A19D",
")#	c #E7F5F5",
"!#	c #F9FCFC",
"~#	c #92D7D6",
"{#	c #09A6A3",
"]#	c #C9EBEA",
"^#	c #CAEBEB",
"/#	c #BEE7E6",
"(#	c #8FD7D5",
"_#	c #2EB3B1",
":#	c #F1FAF9",
"<#	c #FEFEFF",
"[#	c #57C2BE",
"}#	c #9DDBD9",
"|#	c #B7E4E3",
"1#	c #5EC5C4",
"2#	c #2EB3B2",
"3#	c #1BADAB",
"4#	c #2BB3B0",
"5#	c #56C2C0",
"6#	c #AFE2E0",
"7#	c #F5FBFA",
"8#	c #4DBEBD",
"    . +     + + @ # $ % & * = - ; > , ' ) ! +     ~     ",
"      { . + ] ^ / ( _ : < [ } | 1 2 3 4 5 6 7 + 8 9 0   ",
"  a   . + b c d e f g h i j k l m n o p q r s t + .     ",
".   9 + u v w x o y z A B C B B C B D E F G H I J + K   ",
"  0 + L c M N O P B Q Q R Q Q R S T T B U V W 0 X Y +   ",
"  Z `  ...+.@.D B Q m #.$.%.#.&.Q B B *.B =.&.-.;.>.,.` ",
"  + '.).!.~.D B {.].^./.(._.:.<.[.B R =.Q }.|.o 1.2.3.+ ",
"` 4.5.3 6.j Q B =.7.8.9.0.a.b.c.B Q *.=.Q =.d.=.e.f.g.h.",
"+ i.j.w k.B Q B B l.m.n.o.p.q._ r.Q Q B Q Q B B s.t.u.v.",
"+ w.2.J &.B =.*.{.h x.y.z.A.B.0.j.Q {.=.Q =.{.{.B C.D.E.",
"H F.G.H.j |.I.$.J.K.L.M.N.O.P.Q.R.S.T.%.J.U.V.h W.X.Y.Z.",
"`. +m..+++S.@+#+2.$+%+&+*+=+-+;+>+,+'+)+!+~+{+]+Q 7.^+/+",
"(+ ._+:+C &.<+{+[+}+|+1+2+3+& 4+5+6++ 7+8+9+0+a+C l.b+c+",
"d+e+f+D C g+h+i+j+k+l+m+n+o+p+q+r+Q s+t+u+v+w+x+B h y+z+",
"A+/ B+C+:+g+h+D+E+F+K G+H+I+H.J+K+L+M+N+O+P+Q+R+P S+T+Z.",
"+ U+V+W+X+Y+Z+`+ @.@+ W.+@@@#@$@%@U &@*@=@@.-@;@E >@,@'@",
"+ )@!@~@{@]@^@/@(@_@:@S.<@[@}@|@1@2@3@4@-@5@6@7@8@9@0@a@",
"` b@c@d@R+%.Q {.P e@B }.d.R B P _..+|.++P *.|.Q o f@g@h@",
"  + i@j@k@#.9+++++Q ++B l@++B ++:+e@%.B ++B ++m@n@o@p@+ ",
"~ 8 q@r@s@t@u@v@B R B }.=.B B }.B B {.{.}.P w@x@=@y@z@+ ",
"    + A@B@C@D@E@P B B B *.Q B R Q B {.B P m@F@! G@H@+   ",
"    + I@X J@K@L@g l@B R R Q B R Q d.B B 7.M@  N@O@+ K P@",
"    + Q@R@S@T@U@x.).V@$.%.e@C W@E S.#.Q X@Y@Z@`@+   8   ",
"    +  #.#+#@###E.$#x.n@%#&#R *#=#-#;#>#,#'#o@+ 8   {   ",
"  + + )#!#+ + + ~#{#F@> |+]#[@^#/#(#_#X '.:#+ K <#+     ",
"+ [#}#+ 8     K + K |#1#2#].3#l 4#5#6#7#+ 8   9 +       ",
"P@8#~++ P@  ~ ~     + + + ! K   + + +     !     +       "};
