/* XPM */
static char * play_xpm[] = {
"28 28 49 1",
" 	c None",
".	c #00CC99",
"+	c #00CA94",
"@	c #00CB97",
"#	c #0ECF9F",
"$	c #B6F0E2",
"%	c #50DCBA",
"&	c #00CA95",
"*	c #1AD1A4",
"=	c #FFFFFF",
"-	c #84E6CE",
";	c #04CD9B",
">	c #00CC98",
",	c #1AD1A3",
"'	c #C5F3E8",
")	c #0ACE9D",
"!	c #00CB98",
"~	c #E9FBF6",
"{	c #29D4AA",
"]	c #F0FCF9",
"^	c #67E0C3",
"/	c #FEFFFF",
"(	c #8CE8D1",
"_	c #01CC9A",
":	c #B0EFDF",
"<	c #E3F9F4",
"[	c #26D4A9",
"}	c #51DCBA",
"|	c #91E9D3",
"1	c #AAEEDD",
"2	c #7AE4CA",
"3	c #F5FDFB",
"4	c #39D7B0",
"5	c #D1F6ED",
"6	c #2DD5AB",
"7	c #A2EDDA",
"8	c #0FCF9F",
"9	c #FBFEFD",
"0	c #8DE8D1",
"a	c #F2FCFA",
"b	c #49DAB6",
"c	c #E5FAF4",
"d	c #13D0A1",
"e	c #A5EDDB",
"f	c #07CE9C",
"g	c #10CFA0",
"h	c #C9F4EA",
"i	c #64DFC1",
"j	c #00C993",
"   ......................   ",
" .......................... ",
" .......................... ",
"........+@..................",
".......#$%&.................",
".......*==-;>...............",
".......,===')!..............",
".......,====~{>.............",
".......,=====]^&............",
".......,======/(_...........",
".......,========:*!.........",
".......,=========<[@........",
".......,===========}........",
".......,============|>......",
".......,============1>......",
".......,===========2_.......",
".......,=========34.........",
".......,========56@.........",
".......,=======78!..........",
".......,=====90&............",
".......,====ab&.............",
".......,===cd>..............",
".......*==ef>...............",
".......ghi..................",
"........j@..................",
" .......................... ",
" .......................... ",
"   .__________________...   "};
